<svg viewBox="4.608 9.472 51.2 38.912" xmlns="http://www.w3.org/2000/svg" style="max-height: 500px" width="51.2" height="38.912"><defs><linearGradient gradientUnits="userSpaceOnUse" y2="28.33" y1="19.67" x2="21.5" x1="16.5" id="a"><stop stop-color="#fbbf24" offset="0"/><stop stop-color="#fbbf24" offset=".45"/><stop stop-color="#f59e0b" offset="1"/></linearGradient><linearGradient gradientUnits="userSpaceOnUse" y2="50.8" y1="21.96" x2="39.2" x1="22.56" id="b"><stop stop-color="#f3f7fe" offset="0"/><stop stop-color="#f3f7fe" offset=".45"/><stop stop-color="#deeafb" offset="1"/></linearGradient></defs><circle stroke-width=".5" stroke-miterlimit="10" stroke="#f8af18" fill="url(#a)" r="5" cy="24" cx="19"/><path d="M19 15.67V12.5m0 23v-3.17m5.89-14.22l2.24-2.24M10.87 32.13l2.24-2.24m0-11.78l-2.24-2.24m16.26 16.26l-2.24-2.24M7.5 24h3.17m19.83 0h-3.17" stroke-width="2" stroke-miterlimit="10" stroke-linecap="round" stroke="#fbbf24" fill="none"><animateTransform values="0 19 24; 360 19 24" type="rotate" repeatCount="indefinite" dur="45s" attributeName="transform"/></path><path d="M46.5 31.5h-.32a10.49 10.49 0 00-19.11-8 7 7 0 00-10.57 6 7.21 7.21 0 00.1 1.14A7.5 7.5 0 0018 45.5a4.19 4.19 0 00.5 0v0h28a7 7 0 000-14z" stroke-width=".5" stroke-miterlimit="10" stroke="#e6effc" fill="url(#b)"/></svg>