<?xml version="1.0" encoding="iso-8859-1"?>
<!-- Uploaded to: SVG Repo, www.svgrepo.com, Generator: SVG Repo Mixer Tools -->
<svg version="1.1" id="Layer_1" xmlns="http://www.w3.org/2000/svg" xmlns:xlink="http://www.w3.org/1999/xlink" 
	 viewBox="0 0 511.98 511.98" xml:space="preserve">
<rect x="376.722" y="331.202" transform="matrix(0.7395 -0.6731 0.6731 0.7395 -180.1884 382.9382)" style="fill:#1A1718;" width="55.977" height="186.187"/>
<path style="fill:#E21B1B;" d="M237.028,55.989c85.64-0.992,155.926,67.511,157.141,153.143
	c-1.216,85.632-71.501,154.134-157.141,153.143c-85.64,0.992-155.926-67.511-157.141-153.143
	C81.102,123.499,151.388,54.997,237.028,55.989 M237.028,0.01C120.432-1.094,25.011,92.519,23.908,209.115c0,0.008,0,0.016,0,0.016
	c1.096,116.596,96.508,210.217,213.104,209.122c0.008,0,0.016,0,0.016,0c116.596,1.112,212.008-92.509,213.12-209.106
	c0-0.008,0-0.016,0-0.016C449.052,92.535,353.64-1.086,237.044,0.01C237.036,0.01,237.028,0.01,237.028,0.01z"/>
</svg>